name rise30.6535peak61.5555fall82.9339.mot
datacolumns 19
datarows 17
range 5.53497900000000 5.56163900000000
endheader
time	ground_force1_vx	ground_force1_vy	ground_force1_vz	ground_force1_px	ground_force1_py	ground_force1_pz	ground_force2_vx	ground_force2_vy	ground_force2_vz	ground_force2_px	ground_force2_py	ground_force2_pz	ground_torque1_x	ground_torque1_y	ground_torque1_z	ground_torque2_x	ground_torque2_y	ground_torque2_z	
5.53497900000000	-5.45062800000000	41.79528300000000	-11.05133200000000	0.33864600000000	0.00000000000000	0.08133800000000	-52.02793000000000	808.22264900000005	-51.12776800000000	0.10911500000000	0.00000000000000	-0.08536300000000	0.00000000000000	-7.77253900000000	0.00000000000000	0.00000000000000	-17.37934600000000	0.00000000000000	
5.53665200000000	-5.91342700000000	48.85310500000000	-12.41329900000000	0.34012200000000	0.00000000000000	0.08228600000000	-52.93307500000000	805.63890800000001	-50.84815600000000	0.10814500000000	0.00000000000000	-0.08526200000000	0.00000000000000	-8.77491700000000	0.00000000000000	0.00000000000000	-17.38618700000000	0.00000000000000	
5.53831200000000	-6.25417900000000	55.96621200000000	-13.64681600000000	0.34154500000000	0.00000000000000	0.08315900000000	-53.86144600000000	802.91708000000006	-50.55159000000000	0.10716800000000	0.00000000000000	-0.08515900000000	0.00000000000000	-9.69906200000000	0.00000000000000	0.00000000000000	-17.39673500000000	0.00000000000000	
5.53997400000000	-6.45724100000000	63.04091400000000	-14.72301800000000	0.34293000000000	0.00000000000000	0.08396600000000	-54.81181500000000	800.05399999999997	-50.23764500000000	0.10618500000000	0.00000000000000	-0.08505400000000	0.00000000000000	-10.52478600000000	0.00000000000000	0.00000000000000	-17.41081600000000	0.00000000000000	
5.54164000000000	-6.51345500000000	70.00748800000000	-15.62303700000000	0.34428600000000	0.00000000000000	0.08471600000000	-55.78281300000000	797.04646400000001	-49.90590900000000	0.10519800000000	0.00000000000000	-0.08494600000000	0.00000000000000	-11.23863500000000	0.00000000000000	0.00000000000000	-17.42823300000000	0.00000000000000	
5.54330600000000	-6.42001700000000	76.82222100000000	-16.33809700000000	0.34562100000000	0.00000000000000	0.08541600000000	-56.77293300000000	793.89124500000003	-49.55598300000000	0.10420800000000	0.00000000000000	-0.08483700000000	0.00000000000000	-11.83401100000000	0.00000000000000	0.00000000000000	-17.44876300000000	0.00000000000000	
5.54497700000000	-6.17984500000000	83.46696000000000	-16.86877200000000	0.34694400000000	0.00000000000000	0.08607100000000	-57.78053200000000	790.58510000000001	-49.18748800000000	0.10321500000000	0.00000000000000	-0.08472400000000	0.00000000000000	-12.31072200000000	0.00000000000000	0.00000000000000	-17.47215900000000	0.00000000000000	
5.54664100000000	-5.80059000000000	89.94664000000000	-17.22360600000000	0.34825800000000	0.00000000000000	0.08668500000000	-58.80383000000000	787.12478399999998	-48.80006400000000	0.10222100000000	0.00000000000000	-0.08461000000000	0.00000000000000	-12.67407700000000	0.00000000000000	0.00000000000000	-17.49815100000000	0.00000000000000	
5.54831100000000	-5.29343100000000	96.28533400000001	-17.41731600000000	0.34956700000000	0.00000000000000	0.08726300000000	-59.84091600000000	783.50706100000002	-48.39337500000000	0.10122700000000	0.00000000000000	-0.08449300000000	0.00000000000000	-12.93368600000000	0.00000000000000	0.00000000000000	-17.52644600000000	0.00000000000000	
5.54997100000000	-4.67179600000000	102.52141300000000	-17.46879400000000	0.35087400000000	0.00000000000000	0.08780900000000	-60.88974800000000	779.72872199999995	-47.96711200000000	0.10023400000000	0.00000000000000	-0.08437300000000	0.00000000000000	-13.10212200000000	0.00000000000000	0.00000000000000	-17.55672500000000	0.00000000000000	
5.55164300000000	-3.95011700000000	108.70237100000000	-17.39912500000000	0.35218100000000	0.00000000000000	0.08832400000000	-61.94816200000000	775.78659700000003	-47.52099200000000	0.09924300000000	0.00000000000000	-0.08425000000000	0.00000000000000	-13.19355800000000	0.00000000000000	0.00000000000000	-17.58865200000000	0.00000000000000	
5.55330700000000	-3.14272400000000	114.87979900000001	-17.22976100000000	0.35348900000000	0.00000000000000	0.08881300000000	-63.01387000000000	771.67756699999995	-47.05476600000000	0.09825700000000	0.00000000000000	-0.08412500000000	0.00000000000000	-13.22251900000000	0.00000000000000	0.00000000000000	-17.62186600000000	0.00000000000000	
5.55497800000000	-2.26293800000000	121.10486800000000	-16.98098100000000	0.35479800000000	0.00000000000000	0.08927700000000	-64.08447099999999	767.39858400000003	-46.56821900000000	0.09727500000000	0.00000000000000	-0.08399600000000	0.00000000000000	-13.20280700000000	0.00000000000000	0.00000000000000	-17.65598800000000	0.00000000000000	
5.55664000000000	-1.32239900000000	127.42461500000000	-16.67070200000000	0.35610800000000	0.00000000000000	0.08971700000000	-65.15745400000000	762.94668799999999	-46.06117300000000	0.09629900000000	0.00000000000000	-0.08386500000000	0.00000000000000	-13.14666700000000	0.00000000000000	0.00000000000000	-17.69061900000000	0.00000000000000	
5.55830800000000	-0.33064700000000	133.87914699999999	-16.31368400000000	0.35742000000000	0.00000000000000	0.09013700000000	-66.23020500000000	758.31902000000002	-45.53349000000000	0.09533100000000	0.00000000000000	-0.08373000000000	0.00000000000000	-13.06420900000000	0.00000000000000	0.00000000000000	-17.72534400000000	0.00000000000000	
5.55997500000000	0.70507100000000	140.49984000000001	-15.92110100000000	0.35873200000000	0.00000000000000	0.09053700000000	-67.30001200000000	753.51284299999998	-44.98507500000000	0.09437200000000	0.00000000000000	-0.08359200000000	0.00000000000000	-12.96309100000000	0.00000000000000	0.00000000000000	-17.75972900000000	0.00000000000000	
5.56163900000000	1.77977300000000	147.30847499999999	-15.50046800000000	0.36004300000000	0.00000000000000	0.09091800000000	-68.36407500000000	748.52555900000004	-44.41587500000000	0.09342300000000	0.00000000000000	-0.08345000000000	0.00000000000000	-12.84843800000000	0.00000000000000	0.00000000000000	-17.79332800000000	0.00000000000000	
